<svg xmlns="http://www.w3.org/2000/svg" xmlns:xlink="http://www.w3.org/1999/xlink" width="500" zoomAndPan="magnify" viewBox="0 0 375 374.999991" height="500" preserveAspectRatio="xMidYMid meet" version="1.0"><defs><g/></defs><rect x="-37.5" width="450" fill="#ffffff" y="-37.499999" height="449.999989" fill-opacity="1"/><rect x="-37.5" width="450" fill="#ffffff" y="-37.499999" height="449.999989" fill-opacity="1"/><rect x="-37.5" width="450" fill="#ffffff" y="-37.499999" height="449.999989" fill-opacity="1"/><rect x="-37.5" width="450" fill="#ffffff" y="-37.499999" height="449.999989" fill-opacity="1"/><path fill="#000000" d="M 187.429688 275.308594 C 163.96875 275.308594 141.875 266.175781 125.296875 249.5625 C 108.683594 232.984375 99.550781 210.890625 99.550781 187.429688 C 99.550781 163.96875 108.683594 141.875 125.296875 125.296875 C 141.875 108.683594 163.96875 99.550781 187.429688 99.550781 C 210.890625 99.550781 232.984375 108.683594 249.5625 125.296875 C 266.175781 141.910156 275.308594 163.96875 275.308594 187.429688 C 275.308594 210.890625 266.175781 232.984375 249.5625 249.5625 C 232.984375 266.175781 210.890625 275.308594 187.429688 275.308594 Z M 187.429688 104.820312 C 165.371094 104.820312 144.613281 113.425781 129.019531 129.019531 C 113.425781 144.613281 104.820312 165.371094 104.820312 187.429688 C 104.820312 209.488281 113.425781 230.246094 129.019531 245.839844 C 144.613281 261.433594 165.371094 270.039062 187.429688 270.039062 C 209.488281 270.039062 230.246094 261.433594 245.839844 245.839844 C 261.433594 230.246094 270.039062 209.488281 270.039062 187.429688 C 270.039062 165.371094 261.433594 144.613281 245.839844 129.019531 C 230.246094 113.425781 209.488281 104.820312 187.429688 104.820312 Z M 187.429688 104.820312 " fill-opacity="1" fill-rule="nonzero"/><g fill="#000000" fill-opacity="1"><g transform="translate(122.901653, 228.583443)"><g><path d="M 152.625 22.484375 C 153.175781 22.484375 153.734375 22.484375 154.296875 22.484375 L 154.296875 23.859375 C 151.703125 24.234375 148.804688 24.421875 145.609375 24.421875 C 142.421875 24.421875 138.488281 23.722656 133.8125 22.328125 C 129.144531 20.941406 124.914062 18.351562 121.125 14.5625 C 113.351562 6.789062 108.632812 -3.285156 106.96875 -15.671875 L 98.515625 -77.421875 L 69.65625 -12.203125 C 67.0625 -6.566406 65.488281 -1.851562 64.9375 1.9375 L 63.546875 1.9375 L 27.609375 -76.171875 L 21.5 -7.21875 C 21.320312 -5.644531 21.8125 -4.253906 22.96875 -3.046875 C 24.125 -1.847656 25.394531 -1.25 26.78125 -1.25 L 29 -1.25 L 29 0 L 2.078125 0 L 2.078125 -1.390625 L 4.296875 -1.390625 C 6.796875 -1.390625 8.992188 -2.148438 10.890625 -3.671875 C 12.785156 -5.203125 13.96875 -7.21875 14.4375 -9.71875 L 23.171875 -85.46875 C 15.035156 -101.46875 5.273438 -109.46875 -6.109375 -109.46875 C -7.117188 -109.46875 -8.179688 -109.421875 -9.296875 -109.328125 L -9.296875 -110.71875 C -6.796875 -111.363281 -4.757812 -111.6875 -3.1875 -111.6875 C -1.613281 -111.6875 0.09375 -111.617188 1.9375 -111.484375 C 3.789062 -111.347656 5.960938 -110.910156 8.453125 -110.171875 C 10.953125 -109.429688 13.3125 -108.34375 15.53125 -106.90625 C 17.757812 -105.46875 19.703125 -103.984375 21.359375 -102.453125 C 23.023438 -100.929688 24.597656 -99.25 26.078125 -97.40625 C 28.578125 -94.070312 30.566406 -90.878906 32.046875 -87.828125 L 65.484375 -15.40625 L 102.8125 -99.0625 L 104.0625 -99.0625 L 116.96875 -16.921875 C 118.90625 -3.972656 123.085938 5.828125 129.515625 12.484375 C 135.953125 19.148438 143.65625 22.484375 152.625 22.484375 Z M 152.625 22.484375 "/></g></g></g></svg>